Coordinates
version=1
nRows=17
nColumns=40
inDegrees=yes

Units are S.I. units (second, meters, Newtons, ...)
If the header above contains a line with 'inDegrees', this indicates whether rotational values are in degrees (yes) or radians (no).

endheader
time	pelvis_tilt	pelvis_list	pelvis_rotation	pelvis_tx	pelvis_ty	pelvis_tz	hip_flexion_r	hip_adduction_r	hip_rotation_r	knee_angle_r	knee_angle_r_beta	ankle_angle_r	subtalar_angle_r	mtp_angle_r	hip_flexion_l	hip_adduction_l	hip_rotation_l	knee_angle_l	knee_angle_l_beta	ankle_angle_l	subtalar_angle_l	mtp_angle_l	lumbar_extension	lumbar_bending	lumbar_rotation	arm_flex_r	arm_add_r	arm_rot_r	elbow_flex_r	pro_sup_r	wrist_flex_r	wrist_dev_r	arm_flex_l	arm_add_l	arm_rot_l	elbow_flex_l	pro_sup_l	wrist_flex_l	wrist_dev_l
      1.70000000	     -7.15739269	      0.31099324	     -4.96338561	     -0.26013177	      1.03706040	     -1.09750443	      3.54663813	    -10.64900159	     -8.47156164	     58.32840095	      1.01802264	    -19.31937974	      0.00000000	      0.00000000	     13.57580414	      4.34758392	     -3.93309716	     17.50995018	      0.30560628	     -3.04105931	      0.00000000	      0.00000000	     -0.35605036	     -5.03363525	      5.25896219	     89.91300214	    -21.78293020	     31.92318409	     39.52698668	     83.51528836	      0.00000000	      0.00000000	     89.86213197	    -31.36971708	     29.95146772	     41.47504341	     86.47811959	      0.00000000	      0.00000000
      1.70500000	     -7.16935339	      0.30005507	     -4.93621583	     -0.25984379	      1.03701664	     -1.09734153	      3.54742332	    -10.60324515	     -8.48470424	     58.32650437	      1.01798954	    -19.38395170	      0.00000000	      0.00000000	     13.58808093	      4.33049409	     -3.86732778	     17.56060190	      0.30649032	     -3.03892658	      0.00000000	      0.00000000	     -0.30806221	     -5.05839710	      5.16419312	     89.91305645	    -21.73988907	     32.06496225	     39.47977879	     82.94614856	      0.00000000	      0.00000000	     89.86156691	    -31.47192896	     30.01452848	     41.55771640	     86.41773839	      0.00000000	      0.00000000
      1.71000000	     -7.24881078	      0.26379903	     -4.88726897	     -0.25991836	      1.03694191	     -1.09721965	      3.64921671	    -10.52866087	     -8.55231129	     58.34749257	      1.01835586	    -19.33635613	      0.00000000	      0.00000000	     13.67517325	      4.27734861	     -3.88453204	     17.54616294	      0.30623831	     -3.03500156	      0.00000000	      0.00000000	     -0.22667585	     -5.06176405	      5.06701993	     89.91316090	    -21.70416858	     31.97791683	     39.38014506	     83.35549443	      0.00000000	      0.00000000	     89.86248660	    -31.47168870	     29.94290696	     41.51543258	     86.55799085	      0.00000000	      0.00000000
      1.71500000	     -7.25221567	      0.23402891	     -4.87711535	     -0.25994516	      1.03694651	     -1.09709553	      3.67645095	    -10.46550867	     -8.54809089	     58.35738224	      1.01852846	    -19.37859254	      0.00000000	      0.00000000	     13.68947120	      4.23807210	     -3.87167633	     17.57446160	      0.30673222	     -3.00988291	      0.00000000	      0.00000000	     -0.22579738	     -5.06664729	      4.98442618	     89.91349985	    -21.62395241	     31.94182528	     39.29783738	     83.12722643	      0.00000000	      0.00000000	     89.86313366	    -31.54349355	     29.87587610	     41.58232103	     86.60916846	      0.00000000	      0.00000000
      1.72000000	     -7.27505929	      0.24053018	     -4.92590514	     -0.26029842	      1.03696102	     -1.09691197	      3.79022623	    -10.42133964	     -8.43550106	     58.43039564	      1.01980279	    -19.28364876	      0.00000000	      0.00000000	     13.76257570	      4.22125875	     -3.87500457	     17.62616223	      0.30763457	     -3.05285698	      0.00000000	      0.00000000	     -0.24924379	     -5.10173646	      4.91023329	     89.91514906	    -21.66024164	     32.42020825	     39.52059775	     81.76850293	      0.00000000	      0.00000000	     89.86317303	    -31.84708752	     30.09954563	     41.95631777	     86.36938655	      0.00000000	      0.00000000
      1.72500000	     -7.29756163	      0.20494386	     -4.84898329	     -0.26004106	      1.03688918	     -1.09682721	      3.77952772	    -10.38138769	     -8.57196768	     58.38069442	      1.01893534	    -19.45019832	      0.00000000	      0.00000000	     13.77274962	      4.18570039	     -3.82918512	     17.64951021	      0.30804206	     -2.94913228	      0.00000000	      0.00000000	     -0.19042697	     -5.10608447	      4.83066706	     89.91390686	    -21.51782071	     31.90762331	     39.20849063	     82.47965770	      0.00000000	      0.00000000	     89.86379227	    -31.66033894	     29.69848636	     41.71648867	     86.73862187	      0.00000000	      0.00000000
      1.73000000	     -7.31191553	      0.20909883	     -4.86079302	     -0.26009179	      1.03686920	     -1.09666333	      3.82969541	    -10.34395399	     -8.53377285	     58.43731518	      1.01992356	    -19.38174496	      0.00000000	      0.00000000	     13.78164744	      4.17283147	     -3.89924342	     17.61677986	      0.30747081	     -3.00616576	      0.00000000	      0.00000000	     -0.17711116	     -5.15987701	      4.80846180	     89.91394207	    -21.55604060	     31.78033040	     39.19528591	     83.40099921	      0.00000000	      0.00000000	     89.86456216	    -31.63454449	     29.56211661	     41.71592232	     86.53277123	      0.00000000	      0.00000000
      1.73500000	     -7.34483867	      0.18458021	     -4.84944497	     -0.26018678	      1.03683169	     -1.09648356	      3.89505381	    -10.28902083	     -8.55085931	     58.45375750	      1.02021053	    -19.41965072	      0.00000000	      0.00000000	     13.84174303	      4.13805311	     -3.84179665	     17.66598110	      0.30832954	     -2.97802793	      0.00000000	      0.00000000	     -0.14971932	     -5.17736633	      4.72788306	     89.91396587	    -21.50628864	     31.77631806	     39.15033446	     83.12274319	      0.00000000	      0.00000000	     89.86491927	    -31.72227036	     29.48748603	     41.82972257	     86.58839870	      0.00000000	      0.00000000
      1.74000000	     -7.38956739	      0.20919253	     -4.82974588	     -0.26025249	      1.03675709	     -1.09634972	      3.98529715	    -10.29448638	     -8.55334803	     58.53383460	      1.02160814	    -19.30914993	      0.00000000	      0.00000000	     13.91095577	      4.15948010	     -3.75187103	     17.68870952	      0.30872622	     -3.02890798	      0.00000000	      0.00000000	     -0.11070045	     -5.23413438	      4.59476030	     89.91440631	    -21.45334090	     32.01661218	     39.19482252	     81.98251215	      0.00000000	      0.00000000	     89.86654510	    -32.04656003	     29.92717866	     42.11765204	     85.93800806	      0.00000000	      0.00000000
      1.74500000	     -7.44397359	      0.21753601	     -4.80638873	     -0.26023434	      1.03664320	     -1.09611643	      4.05210015	    -10.27082937	     -8.58414189	     58.54047980	      1.02172412	    -19.25994255	      0.00000000	      0.00000000	     13.96796039	      4.14901920	     -3.77911322	     17.69104597	      0.30876700	     -3.03234799	      0.00000000	      0.00000000	     -0.05169268	     -5.28813557	      4.48061742	     89.91446331	    -21.32639174	     31.91013062	     39.06599101	     81.94954866	      0.00000000	      0.00000000	     89.86647056	    -32.13812805	     29.74584593	     42.20725295	     86.35613613	      0.00000000	      0.00000000
      1.75000000	     -7.47102233	      0.16309409	     -4.77415544	     -0.26031893	      1.03659483	     -1.09594223	      4.08722627	    -10.17474050	     -8.61313255	     58.53505208	      1.02162939	    -19.27216005	      0.00000000	      0.00000000	     14.06258471	      4.07601468	     -3.77623948	     17.84389365	      0.31143470	     -2.89863159	      0.00000000	      0.00000000	     -0.03025406	     -5.27119456	      4.41269286	     89.91465344	    -21.23827140	     31.54780829	     38.90727544	     83.50774777	      0.00000000	      0.00000000	     89.86630396	    -32.09748327	     29.51008128	     42.14670158	     86.51726808	      0.00000000	      0.00000000
      1.75500000	     -7.49701643	      0.14252640	     -4.75595784	     -0.26041936	      1.03654942	     -1.09576503	      4.14319303	    -10.11432210	     -8.60524456	     58.57227165	      1.02227899	    -19.21534368	      0.00000000	      0.00000000	     14.12291563	      4.04135531	     -3.76874603	     17.90572713	      0.31251389	     -2.88373457	      0.00000000	      0.00000000	     -0.01496268	     -5.28950980	      4.31600675	     89.91502869	    -21.16654067	     31.50227970	     38.86451935	     83.49197994	      0.00000000	      0.00000000	     89.86681916	    -32.20249692	     29.45193451	     42.24057926	     86.52199665	      0.00000000	      0.00000000
      1.76000000	     -7.49756129	      0.14503214	     -4.75871644	     -0.26059663	      1.03653861	     -1.09559585	      4.18454387	    -10.08813968	     -8.58997637	     58.58529414	      1.02250628	    -19.23319064	      0.00000000	      0.00000000	     14.17755253	      4.03614191	     -3.76024607	     18.01003778	      0.31433446	     -2.87155990	      0.00000000	      0.00000000	     -0.03618750	     -5.33182956	      4.25472789	     89.91556876	    -21.10519923	     31.51709177	     38.86544702	     82.65877840	      0.00000000	      0.00000000	     89.86804079	    -32.26520602	     29.33773027	     42.29587630	     86.49527328	      0.00000000	      0.00000000
      1.76500000	     -7.59608612	      0.13301491	     -4.75855368	     -0.26077923	      1.03635182	     -1.09540047	      4.34864709	    -10.06226633	     -8.62104528	     58.67657297	      1.02409939	    -19.15320103	      0.00000000	      0.00000000	     14.29230377	      4.00239588	     -3.74816085	     18.00110042	      0.31417847	     -2.84779488	      0.00000000	      0.00000000	      0.06428125	     -5.35125176	      4.19980401	     89.91583975	    -21.03698933	     31.48461543	     38.76439839	     82.13703134	      0.00000000	      0.00000000	     89.86802859	    -32.33383425	     29.30517208	     42.32899930	     86.71595746	      0.00000000	      0.00000000
      1.77000000	     -7.61470633	      0.12984038	     -4.76383276	     -0.26095629	      1.03629243	     -1.09525416	      4.40666039	    -10.03373753	     -8.60112470	     58.69739330	      1.02446278	    -19.16727395	      0.00000000	      0.00000000	     14.35976842	      3.99094255	     -3.74586249	     18.07875376	      0.31553378	     -2.83102554	      0.00000000	      0.00000000	      0.06757243	     -5.39077420	      4.16877385	     89.91586861	    -21.07188299	     31.39853813	     38.76461139	     83.35034349	      0.00000000	      0.00000000	     89.86911809	    -32.38513936	     29.27829276	     42.41743386	     86.55743018	      0.00000000	      0.00000000
      1.77500000	     -7.64694763	      0.09580942	     -4.74434170	     -0.26102347	      1.03623186	     -1.09510886	      4.45857020	     -9.98879407	     -8.65247521	     58.71198864	      1.02471751	    -19.18304277	      0.00000000	      0.00000000	     14.40744982	      3.94766205	     -3.71233368	     18.09694540	      0.31585128	     -2.82621556	      0.00000000	      0.00000000	      0.09452658	     -5.39001666	      4.10215754	     89.91622362	    -21.04904076	     31.38846631	     38.76681959	     83.33413871	      0.00000000	      0.00000000	     89.86944437	    -32.45618201	     29.26488151	     42.47853729	     86.52804652	      0.00000000	      0.00000000
      1.78000000	     -7.67664446	      0.05977413	     -4.74632247	     -0.26117112	      1.03616179	     -1.09494380	      4.52338004	     -9.93509187	     -8.65629233	     58.73717011	      1.02515701	    -19.10510811	      0.00000000	      0.00000000	     14.48091973	      3.89525458	     -3.73371580	     18.17841336	      0.31727317	     -2.78583169	      0.00000000	      0.00000000	      0.11300540	     -5.38866268	      4.07336416	     89.91669303	    -21.04511495	     31.35844505	     38.76262953	     83.28456531	      0.00000000	      0.00000000	     89.87015922	    -32.48771501	     29.20860206	     42.51161523	     86.54210386	      0.00000000	      0.00000000
